<?xml version="1.0" standalone="no"?>
<!-- Generator: Adobe Fireworks 10, Export SVG Extension by Aaron Beall (http://fireworks.abeall.com) . Version: 0.6.1  -->
<!DOCTYPE svg PUBLIC "-//W3C//DTD SVG 1.1//EN" "http://www.w3.org/Graphics/SVG/1.1/DTD/svg11.dtd">
<svg id="Untitled-Page%201" viewBox="0 0 56 51" style="background-color:#ffffff00" version="1.1"
	xmlns="http://www.w3.org/2000/svg" xmlns:xlink="http://www.w3.org/1999/xlink" xml:space="preserve"
	x="0px" y="0px" width="56px" height="51px"
>
	<g id="Layer%201">
		<path id="Logo" d="M 11.0818 35.8607 C 11.1609 37.2474 10.0681 38.4293 8.6413 38.4998 C 7.2142 38.5702 5.9932 37.5026 5.9141 36.1159 C 5.8351 34.7292 6.9279 33.548 8.355 33.4775 C 9.7818 33.4071 11.0028 34.474 11.0818 35.8607 ZM 4.0584 36.2075 C 4.0299 35.7086 4.0945 35.2269 4.2295 34.7731 C 3.2991 34.9135 2.1479 35.2632 1.5136 36.1243 C 0.3347 37.7253 0 41.136 0 41.136 L 3.796 38.5914 C 3.5288 38.9051 3.3137 39.261 3.206 39.6655 C 2.6982 41.5734 3.6451 44.8799 3.6451 44.8799 L 7.0286 40.0592 C 5.3819 39.4905 4.1609 38.0059 4.0584 36.2075 ZM 13.235 35.5641 C 13.246 36.1177 12.7661 36.6641 12.5526 37.1423 L 37.0032 51 L 36.2803 38.3182 L 13.235 35.5641 ZM 49.1083 23.7398 C 42.5416 24.9023 36.9748 22.7752 35.8567 27.7569 C 35.5286 29.2186 35.2727 34.3237 34.8726 35.8618 L 11.5747 33.0285 C 11.0502 32.5069 10.3748 32.1352 9.6215 31.9757 C 9.7705 30.9196 9.9207 30.133 10.0464 29.4149 C 12.7228 31.032 15.8965 31.1698 18.4677 30.367 C 20.6469 29.6863 24.174 27.1241 24.4272 24.4738 L 24.4575 24.3271 C 23.8607 26.6649 19.6558 27.7761 17.6371 28.2939 C 14.8589 29.0062 10.968 28.3542 8.4954 25.9154 C 6.4466 23.6698 6.3295 20.3213 7.0331 16.8717 C 8.9932 7.2627 19.3745 1.1386 19.3745 1.1386 C 19.3745 1.1386 20.7217 0.3712 21.7821 0.2215 C 24.2897 -0.1323 26.2664 0.0187 28.5665 0.1239 C 30.1339 0.1956 33.1084 0.6277 34.6551 0.8807 C 35.5348 1.0246 36.5056 1.1505 37.3506 1.4432 C 38.0854 1.6987 39.0247 2.2446 39.6181 3.4102 C 40.7113 5.5575 40.4258 10.3177 43.4798 10.7664 C 46.5435 11.2165 54.7289 12.1417 54.7289 12.1417 C 54.7289 12.1417 55.8954 12.1912 55.9808 12.881 C 56.119 13.9972 55.6746 22.5767 49.1083 23.7398 Z" fill="#f8f8f8"/>
	</g>
</svg>